<svg xmlns="http://www.w3.org/2000/svg" width="1024" height="1024" viewBox="0 0 1024 1024" version="1.1"><path d="M 147.688 353.959 C 144.030 358.306, 144.056 363.210, 147.757 366.910 L 150.513 369.667 169.995 370.345 C 188.393 370.984, 189.598 371.147, 191.664 373.261 C 193.513 375.153, 194.953 381.467, 200.959 414 C 217.235 502.176, 224.105 536.274, 226.576 541.150 C 229.773 547.460, 236.224 553.635, 243 556.872 L 248.500 559.500 321.982 559.775 C 377.314 559.983, 396.178 559.755, 398.355 558.853 C 401.812 557.421, 404.382 552.016, 403.505 548.022 C 403.170 546.498, 401.759 544.182, 400.368 542.876 L 397.840 540.500 324.625 540 C 256.230 539.533, 251.229 539.381, 248.657 537.696 C 244.660 535.075, 242.343 530.668, 241.003 523.136 C 240.354 519.486, 239.643 515.825, 239.424 515 C 239.071 513.676, 248.317 513.500, 318.262 513.500 C 392.500 513.500, 397.728 513.387, 401.108 511.704 C 405.758 509.388, 410.681 504.550, 412.963 500.053 C 414.807 496.420, 431 417.875, 431 412.565 C 431 408.078, 427.443 401.780, 423.338 399 L 419.647 396.500 318.324 396.231 C 262.596 396.084, 217 395.816, 217 395.636 C 217 395.456, 215.898 389.356, 214.552 382.081 C 211.991 368.240, 209.770 362.962, 204.339 357.803 C 198.606 352.357, 195.360 351.697, 171.938 351.212 L 150.375 350.765 147.688 353.959 M 471 426 L 471 482 505.750 481.998 L 540.500 481.996 540.500 472.997 L 540.500 463.998 516.250 463.999 L 492 464 492 449 L 492 434 514 434 L 536 434 536 425 L 536 416 514 416 L 492 416 492 401.500 L 492 387 516 387 L 540 387 540 378.500 L 540 370 505.500 370 L 471 370 471 426 M 576.500 400.399 C 567.431 402.629, 561.468 406.887, 557.687 413.834 C 556.238 416.497, 554.927 420.156, 554.776 421.965 L 554.500 425.255 562 427.085 C 566.125 428.092, 569.564 428.935, 569.642 428.958 C 569.719 428.981, 570.087 427.790, 570.458 426.311 C 572.165 419.509, 579.648 413.984, 587 414.098 C 596.302 414.242, 602 419.579, 602 428.148 L 602 433 593.588 433 C 583.564 433, 572.108 435.038, 565.042 438.077 C 545.001 446.699, 546.883 475.486, 567.946 482.482 C 571.877 483.788, 575.321 484.124, 581.367 483.792 C 590.548 483.288, 596.138 481.001, 600.310 476.044 C 603.369 472.408, 603.996 472.274, 604.014 475.250 C 604.053 481.811, 604.366 482, 615.152 482 L 625.070 482 623.798 479.750 C 622.890 478.145, 622.367 469.329, 621.974 449 C 621.388 418.717, 621.160 417.247, 615.919 409.887 C 609.574 400.975, 591.678 396.668, 576.500 400.399 M 656.297 399.986 C 644.710 402.450, 637.735 409.881, 636.410 421.176 C 635.225 431.276, 639.617 439.723, 648.375 444.191 C 650.610 445.332, 657.556 447.530, 663.810 449.077 C 676.524 452.221, 679.667 453.823, 680.628 457.653 C 683.472 468.985, 662.184 473.678, 654.168 463.486 C 652.976 461.970, 652 459.842, 652 458.757 C 652 457.218, 651.504 456.901, 649.750 457.317 C 648.513 457.611, 644.982 458.153, 641.904 458.522 C 633.687 459.506, 633.314 459.915, 635.472 465.567 C 637.929 471.998, 643.042 477.385, 649.839 480.701 C 655.010 483.224, 656.496 483.464, 667 483.481 C 676.910 483.497, 679.190 483.182, 683.488 481.201 C 690.047 478.178, 692.767 475.555, 695.623 469.500 C 699.726 460.800, 698.771 450.429, 693.276 444.010 C 688.584 438.528, 684.461 436.610, 669.898 433.135 C 659.843 430.737, 657.141 429.702, 655.281 427.541 C 651.397 423.025, 652.938 417.635, 659.011 414.494 C 666.451 410.647, 676.476 415.049, 679.297 423.403 C 679.675 424.524, 695.809 422.118, 696.610 420.822 C 697.617 419.192, 691.962 409.072, 688.617 406.522 C 680.585 400.395, 667.150 397.679, 656.297 399.986 M 701 400.717 C 701 401.150, 708.181 419.650, 716.957 441.829 L 732.914 482.154 730.796 487.815 C 727.980 495.341, 724.557 498.644, 718.654 499.529 C 716.084 499.915, 712.861 500.015, 711.491 499.754 L 709 499.277 709 507.639 L 709 516 718 516 L 727 516 727 569.500 L 727 623 735.500 623 L 744 623 744.038 603.250 L 744.076 583.500 748.992 588.770 C 751.696 591.668, 758.559 600.443, 764.244 608.270 L 774.581 622.500 785.436 622.785 L 796.291 623.071 793.838 619.785 C 792.488 617.978, 785.635 608.294, 778.609 598.264 L 765.833 580.028 768.167 577.122 C 769.450 575.523, 776.041 567.867, 782.813 560.108 L 795.127 546 783.766 546 L 772.405 546 758.203 563.599 L 744 581.197 744 546.841 L 744 512.486 739.250 512.784 L 734.500 513.082 737.092 511.073 C 738.518 509.967, 740.861 507.362, 742.300 505.282 C 744.426 502.208, 780.991 403.404, 780.998 400.714 C 780.999 400.281, 776.651 400.056, 771.337 400.214 L 761.673 400.500 752.154 429.750 C 743.817 455.369, 741 462.439, 741 457.744 C 741 457.053, 736.596 443.891, 731.213 428.494 L 721.426 400.500 711.213 400.215 C 705.596 400.058, 701 400.284, 701 400.717 M 221.841 415.492 C 221.571 415.763, 222.706 423.188, 224.364 431.992 L 227.379 448 242.690 448 L 258 448 258 445.302 C 258 443.818, 257.480 436.393, 256.844 428.802 L 255.687 415 239.010 415 C 229.838 415, 222.112 415.221, 221.841 415.492 M 273.890 415.443 C 273.646 415.687, 273.991 421.875, 274.656 429.193 C 275.322 436.512, 275.896 443.738, 275.933 445.250 L 276 448 291.500 448 L 307 448 307 431.500 L 307 415 290.667 415 C 281.683 415, 274.134 415.199, 273.890 415.443 M 324.441 416.294 C 324.168 417.006, 324.069 424.318, 324.222 432.544 L 324.500 447.500 339.750 447.776 C 348.137 447.928, 355.036 447.928, 355.081 447.776 C 355.504 446.329, 357.398 415.731, 357.084 415.417 C 356.854 415.188, 349.528 415, 340.802 415 C 328.745 415, 324.818 415.311, 324.441 416.294 M 375.683 415.750 C 375.444 416.163, 374.950 421.675, 374.585 428 C 374.221 434.325, 373.664 441.413, 373.348 443.750 L 372.773 448 389.243 448 L 405.713 448 408.857 432.250 C 410.586 423.587, 412.001 416.163, 412.001 415.750 C 412 415.337, 403.927 415, 394.059 415 C 384.191 415, 375.922 415.337, 375.683 415.750 M 587.500 446.480 C 586.950 446.679, 584.289 447.142, 581.587 447.507 C 568.535 449.272, 566.795 465.182, 579.395 467.546 C 591.704 469.855, 601.442 462.792, 602.208 451 L 602.500 446.500 595.500 446.309 C 591.650 446.203, 588.050 446.280, 587.500 446.480 M 230.619 464.712 C 230.504 464.828, 231.577 471.803, 233.003 480.212 L 235.596 495.500 248.939 495.780 L 262.281 496.060 261.676 488.780 C 261.344 484.776, 260.774 477.810, 260.411 473.300 L 259.750 465.100 245.289 464.800 C 237.335 464.635, 230.733 464.595, 230.619 464.712 M 278.424 477 C 278.793 483.875, 279.348 490.962, 279.658 492.750 L 280.223 496 294.247 496 L 308.272 496 307.636 491.360 C 307.286 488.809, 307 481.857, 307 475.912 L 307 465.103 292.377 464.801 L 277.755 464.500 278.424 477 M 324.665 464.664 C 324.574 464.754, 324.635 471.841, 324.799 480.414 L 325.098 496 338.420 496 L 351.742 496 352.349 488.250 C 352.683 483.988, 353.239 476.900, 353.584 472.500 L 354.212 464.500 339.521 464.500 C 331.441 464.500, 324.756 464.574, 324.665 464.664 M 371.947 465 C 371.916 465.275, 371.341 472.363, 370.669 480.750 L 369.446 496 382.656 496 C 394.372 496, 395.924 495.802, 396.383 494.250 C 396.991 492.195, 402 466.334, 402.001 465.243 C 402.001 464.430, 372.036 464.187, 371.947 465 M 471 569 L 471 623 480 623 L 489 623 489.023 585.250 L 489.046 547.500 495.586 562.500 C 499.183 570.750, 505.745 585.712, 510.167 595.750 L 518.208 614 525.354 613.973 L 532.500 613.945 541.161 594.223 C 545.925 583.375, 552.450 568.507, 555.661 561.183 L 561.500 547.866 561.762 585.472 L 562.024 623.078 570.524 622.789 L 579.024 622.500 579.262 568.719 L 579.500 514.939 568.500 515.219 L 557.500 515.500 541.511 553.860 L 525.523 592.221 523.433 587.671 C 522.283 585.169, 515.078 567.806, 507.421 549.088 L 493.500 515.054 482.250 515.027 L 471 515 471 569 M 895.500 524.504 C 894.950 524.694, 891.462 525.145, 887.750 525.505 L 881 526.159 881 536.080 L 881 546 875.579 546 L 870.158 546 869.829 553.502 L 869.500 561.005 875.250 561.002 L 881 561 881 582.818 C 881 607.086, 881.934 612.692, 886.726 617.176 C 892.996 623.044, 902.821 625.217, 913.271 623.048 C 919.645 621.724, 919.522 621.988, 918.349 612.228 C 917.796 607.624, 917.474 607.032, 915.808 607.561 C 914.758 607.894, 911.832 608.167, 909.306 608.167 C 905.691 608.167, 904.157 607.612, 902.106 605.563 L 899.500 602.959 899.194 581.979 L 898.888 561 908.944 561 L 919 561 919 553.500 L 919 546 909 546 L 899 546 899 535 C 899 524.026, 898.781 523.369, 895.500 524.504 M 621.403 545.155 C 613.609 546.038, 609.227 547.896, 604.169 552.466 C 599.943 556.284, 596 563.152, 596 566.694 C 596 568.403, 597.137 569.043, 602.624 570.421 C 606.268 571.336, 609.362 571.953, 609.501 571.792 C 609.640 571.632, 610.728 569.570, 611.917 567.211 C 614.781 561.533, 619.051 559.008, 625.800 559.004 C 635.311 558.997, 640 563.437, 640 572.450 L 640 577 630.250 577.015 C 604.949 577.053, 592.824 585.144, 592.824 601.988 C 592.824 610.294, 595.342 615.787, 601.046 619.918 C 611.774 627.690, 630.605 626.201, 638.376 616.966 C 641.157 613.659, 641.670 613.998, 642.207 619.500 L 642.500 622.500 651.374 622.791 L 660.249 623.081 659.648 620.291 C 659.317 618.756, 658.755 605.575, 658.397 591 C 657.825 567.669, 657.508 563.931, 655.747 559.743 C 653.553 554.523, 648.530 549.537, 643.238 547.326 C 638.441 545.322, 628.582 544.341, 621.403 545.155 M 706.917 544.909 C 701.570 545.986, 696.347 549.631, 693.426 554.324 L 690.826 558.500 691.402 552.213 L 691.977 545.925 682.814 546.213 L 673.651 546.500 673.199 584.750 L 672.747 623 681.873 623 L 691 623 691 602.549 C 691 591.301, 691.497 579.779, 692.105 576.944 C 694.111 567.592, 702.283 562, 713.943 562 L 718 562 718 553.500 C 718 546.077, 717.778 544.998, 716.250 544.986 C 715.288 544.979, 713.600 544.796, 712.500 544.580 C 711.400 544.364, 708.887 544.512, 706.917 544.909 M 825.500 545.138 C 817.831 546.217, 808.083 551.003, 803.937 555.725 C 798.311 562.132, 795.766 569.143, 795.210 579.766 C 794.240 598.316, 798.894 611.224, 809.078 618.231 C 816.219 623.144, 825.212 625.420, 834.667 624.707 C 843.177 624.066, 849.223 621.600, 854.928 616.446 C 859.137 612.644, 864.700 604.367, 863.712 603.378 C 863.163 602.829, 848.637 598.931, 848.498 599.295 C 848.454 599.408, 847.177 601.188, 845.658 603.251 C 842.144 608.024, 838.297 610, 832.518 610 C 823.930 610, 817.447 605.352, 814.539 597.110 C 811.459 588.380, 809.552 589, 839.500 589 L 866 589 865.983 584.250 C 865.957 577.171, 863.382 566.327, 860.599 561.579 C 857.847 556.882, 850.731 549.946, 846.330 547.671 C 843.776 546.350, 841.148 545.719, 833.500 544.589 C 832.400 544.427, 828.800 544.674, 825.500 545.138 M 824.684 559.416 C 818.334 561.735, 814.993 565.779, 813.668 572.750 L 813.050 576 830.025 576 C 846.758 576, 847 575.969, 847 573.838 C 847 572.649, 845.879 569.763, 844.509 567.425 C 840.180 560.038, 832.014 556.739, 824.684 559.416 M 243.139 571.147 C 235.466 573.355, 228.792 579.468, 225.531 587.272 C 223.396 592.381, 223.572 603.465, 225.867 608.500 C 230.362 618.359, 238.363 624.007, 248.904 624.761 C 259.786 625.540, 269.258 620.453, 274.350 611.098 C 280.429 599.929, 278.611 587.480, 269.582 578.451 C 262.135 571.005, 252.696 568.397, 243.139 571.147 M 364.969 571.536 C 362.478 572.304, 358.580 574.524, 356.308 576.469 C 343.777 587.194, 343.727 607.763, 356.205 618.443 C 374.708 634.282, 402.711 619.904, 400.757 595.568 C 400.167 588.205, 398.181 583.950, 392.674 578.240 C 385.592 570.899, 375.196 568.383, 364.969 571.536 M 245.750 589.080 C 243.470 590.408, 241 595.241, 241 598.374 C 241 599.734, 242.165 602.231, 243.589 603.923 C 245.767 606.511, 246.886 607, 250.634 607 C 256.665 607, 260 603.784, 260 597.969 C 260 590.521, 251.924 585.484, 245.750 589.080 M 367.306 590.413 C 365.004 592.394, 364.500 593.636, 364.500 597.333 C 364.500 603.641, 367.704 607, 373.720 607 C 379.660 607, 383 603.750, 383 597.969 C 383 589.430, 373.671 584.938, 367.306 590.413 M 618.500 590.506 C 616.300 591.287, 613.712 592.892, 612.750 594.073 C 610.165 597.247, 610.483 603.288, 613.416 606.694 C 615.630 609.266, 616.408 609.500, 622.747 609.497 C 628.824 609.495, 630.121 609.145, 633.437 606.616 C 637.809 603.281, 640 598.746, 640 593.032 L 640 589 631.250 589.044 C 626.359 589.068, 620.736 589.713, 618.500 590.506" stroke="none" fill="#0e294a" fill-rule="evenodd"/><path d="M 0 512.001 L 0 1024.002 512.250 1023.751 L 1024.500 1023.500 1024.751 511.750 L 1025.002 0 512.501 0 L 0 0 0 512.001 M 0.496 512.500 C 0.496 794.100, 0.610 909.151, 0.750 768.168 C 0.890 627.186, 0.890 396.786, 0.750 256.168 C 0.610 115.551, 0.496 230.900, 0.496 512.500 M 147.688 353.959 C 144.030 358.306, 144.056 363.210, 147.757 366.910 L 150.513 369.667 169.995 370.345 C 188.393 370.984, 189.598 371.147, 191.664 373.261 C 193.513 375.153, 194.953 381.467, 200.959 414 C 217.235 502.176, 224.105 536.274, 226.576 541.150 C 229.773 547.460, 236.224 553.635, 243 556.872 L 248.500 559.500 321.982 559.775 C 377.314 559.983, 396.178 559.755, 398.355 558.853 C 401.812 557.421, 404.382 552.016, 403.505 548.022 C 403.170 546.498, 401.759 544.182, 400.368 542.876 L 397.840 540.500 324.625 540 C 256.230 539.533, 251.229 539.381, 248.657 537.696 C 244.660 535.075, 242.343 530.668, 241.003 523.136 C 240.354 519.486, 239.643 515.825, 239.424 515 C 239.071 513.676, 248.317 513.500, 318.262 513.500 C 392.500 513.500, 397.728 513.387, 401.108 511.704 C 405.758 509.388, 410.681 504.550, 412.963 500.053 C 414.807 496.420, 431 417.875, 431 412.565 C 431 408.078, 427.443 401.780, 423.338 399 L 419.647 396.500 318.324 396.231 C 262.596 396.084, 217 395.816, 217 395.636 C 217 395.456, 215.898 389.356, 214.552 382.081 C 211.991 368.240, 209.770 362.962, 204.339 357.803 C 198.606 352.357, 195.360 351.697, 171.938 351.212 L 150.375 350.765 147.688 353.959 M 471 426 L 471 482 505.750 481.998 L 540.500 481.996 540.500 472.997 L 540.500 463.998 516.250 463.999 L 492 464 492 449 L 492 434 514 434 L 536 434 536 425 L 536 416 514 416 L 492 416 492 401.500 L 492 387 516 387 L 540 387 540 378.500 L 540 370 505.500 370 L 471 370 471 426 M 576.500 400.399 C 567.431 402.629, 561.468 406.887, 557.687 413.834 C 556.238 416.497, 554.927 420.156, 554.776 421.965 L 554.500 425.255 562 427.085 C 566.125 428.092, 569.564 428.935, 569.642 428.958 C 569.719 428.981, 570.087 427.790, 570.458 426.311 C 572.165 419.509, 579.648 413.984, 587 414.098 C 596.302 414.242, 602 419.579, 602 428.148 L 602 433 593.588 433 C 583.564 433, 572.108 435.038, 565.042 438.077 C 545.001 446.699, 546.883 475.486, 567.946 482.482 C 571.877 483.788, 575.321 484.124, 581.367 483.792 C 590.548 483.288, 596.138 481.001, 600.310 476.044 C 603.369 472.408, 603.996 472.274, 604.014 475.250 C 604.053 481.811, 604.366 482, 615.152 482 L 625.070 482 623.798 479.750 C 622.890 478.145, 622.367 469.329, 621.974 449 C 621.388 418.717, 621.160 417.247, 615.919 409.887 C 609.574 400.975, 591.678 396.668, 576.500 400.399 M 656.297 399.986 C 644.710 402.450, 637.735 409.881, 636.410 421.176 C 635.225 431.276, 639.617 439.723, 648.375 444.191 C 650.610 445.332, 657.556 447.530, 663.810 449.077 C 676.524 452.221, 679.667 453.823, 680.628 457.653 C 683.472 468.985, 662.184 473.678, 654.168 463.486 C 652.976 461.970, 652 459.842, 652 458.757 C 652 457.218, 651.504 456.901, 649.750 457.317 C 648.513 457.611, 644.982 458.153, 641.904 458.522 C 633.687 459.506, 633.314 459.915, 635.472 465.567 C 637.929 471.998, 643.042 477.385, 649.839 480.701 C 655.010 483.224, 656.496 483.464, 667 483.481 C 676.910 483.497, 679.190 483.182, 683.488 481.201 C 690.047 478.178, 692.767 475.555, 695.623 469.500 C 699.726 460.800, 698.771 450.429, 693.276 444.010 C 688.584 438.528, 684.461 436.610, 669.898 433.135 C 659.843 430.737, 657.141 429.702, 655.281 427.541 C 651.397 423.025, 652.938 417.635, 659.011 414.494 C 666.451 410.647, 676.476 415.049, 679.297 423.403 C 679.675 424.524, 695.809 422.118, 696.610 420.822 C 697.617 419.192, 691.962 409.072, 688.617 406.522 C 680.585 400.395, 667.150 397.679, 656.297 399.986 M 701 400.717 C 701 401.150, 708.181 419.650, 716.957 441.829 L 732.914 482.154 730.796 487.815 C 727.980 495.341, 724.557 498.644, 718.654 499.529 C 716.084 499.915, 712.861 500.015, 711.491 499.754 L 709 499.277 709 507.639 L 709 516 718 516 L 727 516 727 569.500 L 727 623 735.500 623 L 744 623 744.038 603.250 L 744.076 583.500 748.992 588.770 C 751.696 591.668, 758.559 600.443, 764.244 608.270 L 774.581 622.500 785.436 622.785 L 796.291 623.071 793.838 619.785 C 792.488 617.978, 785.635 608.294, 778.609 598.264 L 765.833 580.028 768.167 577.122 C 769.450 575.523, 776.041 567.867, 782.813 560.108 L 795.127 546 783.766 546 L 772.405 546 758.203 563.599 L 744 581.197 744 546.841 L 744 512.486 739.250 512.784 L 734.500 513.082 737.092 511.073 C 738.518 509.967, 740.861 507.362, 742.300 505.282 C 744.426 502.208, 780.991 403.404, 780.998 400.714 C 780.999 400.281, 776.651 400.056, 771.337 400.214 L 761.673 400.500 752.154 429.750 C 743.817 455.369, 741 462.439, 741 457.744 C 741 457.053, 736.596 443.891, 731.213 428.494 L 721.426 400.500 711.213 400.215 C 705.596 400.058, 701 400.284, 701 400.717 M 221.841 415.492 C 221.571 415.763, 222.706 423.188, 224.364 431.992 L 227.379 448 242.690 448 L 258 448 258 445.302 C 258 443.818, 257.480 436.393, 256.844 428.802 L 255.687 415 239.010 415 C 229.838 415, 222.112 415.221, 221.841 415.492 M 273.890 415.443 C 273.646 415.687, 273.991 421.875, 274.656 429.193 C 275.322 436.512, 275.896 443.738, 275.933 445.250 L 276 448 291.500 448 L 307 448 307 431.500 L 307 415 290.667 415 C 281.683 415, 274.134 415.199, 273.890 415.443 M 324.441 416.294 C 324.168 417.006, 324.069 424.318, 324.222 432.544 L 324.500 447.500 339.750 447.776 C 348.137 447.928, 355.036 447.928, 355.081 447.776 C 355.504 446.329, 357.398 415.731, 357.084 415.417 C 356.854 415.188, 349.528 415, 340.802 415 C 328.745 415, 324.818 415.311, 324.441 416.294 M 375.683 415.750 C 375.444 416.163, 374.950 421.675, 374.585 428 C 374.221 434.325, 373.664 441.413, 373.348 443.750 L 372.773 448 389.243 448 L 405.713 448 408.857 432.250 C 410.586 423.587, 412.001 416.163, 412.001 415.750 C 412 415.337, 403.927 415, 394.059 415 C 384.191 415, 375.922 415.337, 375.683 415.750 M 587.500 446.480 C 586.950 446.679, 584.289 447.142, 581.587 447.507 C 568.535 449.272, 566.795 465.182, 579.395 467.546 C 591.704 469.855, 601.442 462.792, 602.208 451 L 602.500 446.500 595.500 446.309 C 591.650 446.203, 588.050 446.280, 587.500 446.480 M 230.619 464.712 C 230.504 464.828, 231.577 471.803, 233.003 480.212 L 235.596 495.500 248.939 495.780 L 262.281 496.060 261.676 488.780 C 261.344 484.776, 260.774 477.810, 260.411 473.300 L 259.750 465.100 245.289 464.800 C 237.335 464.635, 230.733 464.595, 230.619 464.712 M 278.424 477 C 278.793 483.875, 279.348 490.962, 279.658 492.750 L 280.223 496 294.247 496 L 308.272 496 307.636 491.360 C 307.286 488.809, 307 481.857, 307 475.912 L 307 465.103 292.377 464.801 L 277.755 464.500 278.424 477 M 324.665 464.664 C 324.574 464.754, 324.635 471.841, 324.799 480.414 L 325.098 496 338.420 496 L 351.742 496 352.349 488.250 C 352.683 483.988, 353.239 476.900, 353.584 472.500 L 354.212 464.500 339.521 464.500 C 331.441 464.500, 324.756 464.574, 324.665 464.664 M 371.947 465 C 371.916 465.275, 371.341 472.363, 370.669 480.750 L 369.446 496 382.656 496 C 394.372 496, 395.924 495.802, 396.383 494.250 C 396.991 492.195, 402 466.334, 402.001 465.243 C 402.001 464.430, 372.036 464.187, 371.947 465 M 471 569 L 471 623 480 623 L 489 623 489.023 585.250 L 489.046 547.500 495.586 562.500 C 499.183 570.750, 505.745 585.712, 510.167 595.750 L 518.208 614 525.354 613.973 L 532.500 613.945 541.161 594.223 C 545.925 583.375, 552.450 568.507, 555.661 561.183 L 561.500 547.866 561.762 585.472 L 562.024 623.078 570.524 622.789 L 579.024 622.500 579.262 568.719 L 579.500 514.939 568.500 515.219 L 557.500 515.500 541.511 553.860 L 525.523 592.221 523.433 587.671 C 522.283 585.169, 515.078 567.806, 507.421 549.088 L 493.500 515.054 482.250 515.027 L 471 515 471 569 M 895.500 524.504 C 894.950 524.694, 891.462 525.145, 887.750 525.505 L 881 526.159 881 536.080 L 881 546 875.579 546 L 870.158 546 869.829 553.502 L 869.500 561.005 875.250 561.002 L 881 561 881 582.818 C 881 607.086, 881.934 612.692, 886.726 617.176 C 892.996 623.044, 902.821 625.217, 913.271 623.048 C 919.645 621.724, 919.522 621.988, 918.349 612.228 C 917.796 607.624, 917.474 607.032, 915.808 607.561 C 914.758 607.894, 911.832 608.167, 909.306 608.167 C 905.691 608.167, 904.157 607.612, 902.106 605.563 L 899.500 602.959 899.194 581.979 L 898.888 561 908.944 561 L 919 561 919 553.500 L 919 546 909 546 L 899 546 899 535 C 899 524.026, 898.781 523.369, 895.500 524.504 M 621.403 545.155 C 613.609 546.038, 609.227 547.896, 604.169 552.466 C 599.943 556.284, 596 563.152, 596 566.694 C 596 568.403, 597.137 569.043, 602.624 570.421 C 606.268 571.336, 609.362 571.953, 609.501 571.792 C 609.640 571.632, 610.728 569.570, 611.917 567.211 C 614.781 561.533, 619.051 559.008, 625.800 559.004 C 635.311 558.997, 640 563.437, 640 572.450 L 640 577 630.250 577.015 C 604.949 577.053, 592.824 585.144, 592.824 601.988 C 592.824 610.294, 595.342 615.787, 601.046 619.918 C 611.774 627.690, 630.605 626.201, 638.376 616.966 C 641.157 613.659, 641.670 613.998, 642.207 619.500 L 642.500 622.500 651.374 622.791 L 660.249 623.081 659.648 620.291 C 659.317 618.756, 658.755 605.575, 658.397 591 C 657.825 567.669, 657.508 563.931, 655.747 559.743 C 653.553 554.523, 648.530 549.537, 643.238 547.326 C 638.441 545.322, 628.582 544.341, 621.403 545.155 M 706.917 544.909 C 701.570 545.986, 696.347 549.631, 693.426 554.324 L 690.826 558.500 691.402 552.213 L 691.977 545.925 682.814 546.213 L 673.651 546.500 673.199 584.750 L 672.747 623 681.873 623 L 691 623 691 602.549 C 691 591.301, 691.497 579.779, 692.105 576.944 C 694.111 567.592, 702.283 562, 713.943 562 L 718 562 718 553.500 C 718 546.077, 717.778 544.998, 716.250 544.986 C 715.288 544.979, 713.600 544.796, 712.500 544.580 C 711.400 544.364, 708.887 544.512, 706.917 544.909 M 825.500 545.138 C 817.831 546.217, 808.083 551.003, 803.937 555.725 C 798.311 562.132, 795.766 569.143, 795.210 579.766 C 794.240 598.316, 798.894 611.224, 809.078 618.231 C 816.219 623.144, 825.212 625.420, 834.667 624.707 C 843.177 624.066, 849.223 621.600, 854.928 616.446 C 859.137 612.644, 864.700 604.367, 863.712 603.378 C 863.163 602.829, 848.637 598.931, 848.498 599.295 C 848.454 599.408, 847.177 601.188, 845.658 603.251 C 842.144 608.024, 838.297 610, 832.518 610 C 823.930 610, 817.447 605.352, 814.539 597.110 C 811.459 588.380, 809.552 589, 839.500 589 L 866 589 865.983 584.250 C 865.957 577.171, 863.382 566.327, 860.599 561.579 C 857.847 556.882, 850.731 549.946, 846.330 547.671 C 843.776 546.350, 841.148 545.719, 833.500 544.589 C 832.400 544.427, 828.800 544.674, 825.500 545.138 M 824.684 559.416 C 818.334 561.735, 814.993 565.779, 813.668 572.750 L 813.050 576 830.025 576 C 846.758 576, 847 575.969, 847 573.838 C 847 572.649, 845.879 569.763, 844.509 567.425 C 840.180 560.038, 832.014 556.739, 824.684 559.416 M 243.139 571.147 C 235.466 573.355, 228.792 579.468, 225.531 587.272 C 223.396 592.381, 223.572 603.465, 225.867 608.500 C 230.362 618.359, 238.363 624.007, 248.904 624.761 C 259.786 625.540, 269.258 620.453, 274.350 611.098 C 280.429 599.929, 278.611 587.480, 269.582 578.451 C 262.135 571.005, 252.696 568.397, 243.139 571.147 M 364.969 571.536 C 362.478 572.304, 358.580 574.524, 356.308 576.469 C 343.777 587.194, 343.727 607.763, 356.205 618.443 C 374.708 634.282, 402.711 619.904, 400.757 595.568 C 400.167 588.205, 398.181 583.950, 392.674 578.240 C 385.592 570.899, 375.196 568.383, 364.969 571.536 M 245.750 589.080 C 243.470 590.408, 241 595.241, 241 598.374 C 241 599.734, 242.165 602.231, 243.589 603.923 C 245.767 606.511, 246.886 607, 250.634 607 C 256.665 607, 260 603.784, 260 597.969 C 260 590.521, 251.924 585.484, 245.750 589.080 M 367.306 590.413 C 365.004 592.394, 364.500 593.636, 364.500 597.333 C 364.500 603.641, 367.704 607, 373.720 607 C 379.660 607, 383 603.750, 383 597.969 C 383 589.430, 373.671 584.938, 367.306 590.413 M 618.500 590.506 C 616.300 591.287, 613.712 592.892, 612.750 594.073 C 610.165 597.247, 610.483 603.288, 613.416 606.694 C 615.630 609.266, 616.408 609.500, 622.747 609.497 C 628.824 609.495, 630.121 609.145, 633.437 606.616 C 637.809 603.281, 640 598.746, 640 593.032 L 640 589 631.250 589.044 C 626.359 589.068, 620.736 589.713, 618.500 590.506" stroke="none" fill="#fbfbfb" fill-rule="evenodd"/></svg>